<mxfile host="app.diagrams.net" modified="2023-01-31T04:35:43.711Z" agent="5.0 (Windows NT 10.0; Win64; x64) AppleWebKit/537.36 (KHTML, like Gecko) Chrome/108.0.0.0 Safari/537.36" etag="tfPmHe3MwtGpiFEhTMCV" version="20.8.13" type="github">
  <diagram name="第 1 页" id="NcMmJZwhZQNFOJFXkyM4">
    <mxGraphModel dx="1647" dy="806" grid="1" gridSize="10" guides="1" tooltips="1" connect="1" arrows="1" fold="1" page="1" pageScale="1" pageWidth="827" pageHeight="1169" math="0" shadow="0">
      <root>
        <mxCell id="0" />
        <mxCell id="1" parent="0" />
        <UserObject label="" treeRoot="1" id="CTbkkkIAVjYK_eoV67LG-1">
          <mxCell style="whiteSpace=wrap;html=1;align=center;treeFolding=1;treeMoving=1;newEdgeStyle={&quot;edgeStyle&quot;:&quot;elbowEdgeStyle&quot;,&quot;startArrow&quot;:&quot;none&quot;,&quot;endArrow&quot;:&quot;none&quot;};fillColor=#FFFFFF;strokeColor=#d6b656;" vertex="1" parent="1">
            <mxGeometry x="617" y="149" width="40" height="30" as="geometry" />
          </mxCell>
        </UserObject>
        <UserObject label="" treeRoot="1" id="CTbkkkIAVjYK_eoV67LG-2">
          <mxCell style="whiteSpace=wrap;html=1;align=center;treeFolding=1;treeMoving=1;newEdgeStyle={&quot;edgeStyle&quot;:&quot;elbowEdgeStyle&quot;,&quot;startArrow&quot;:&quot;none&quot;,&quot;endArrow&quot;:&quot;none&quot;};fillColor=#FFFFFF;strokeColor=#d6b656;" vertex="1" parent="1">
            <mxGeometry x="279" y="150" width="40" height="30" as="geometry" />
          </mxCell>
        </UserObject>
        <mxCell id="CTbkkkIAVjYK_eoV67LG-3" value="" style="endArrow=none;html=1;rounded=0;fillColor=#dae8fc;strokeColor=#6c8ebf;" edge="1" parent="1">
          <mxGeometry width="50" height="50" relative="1" as="geometry">
            <mxPoint x="49" y="180" as="sourcePoint" />
            <mxPoint x="239" y="180" as="targetPoint" />
          </mxGeometry>
        </mxCell>
        <mxCell id="CTbkkkIAVjYK_eoV67LG-4" value="" style="ellipse;whiteSpace=wrap;html=1;aspect=fixed;fillColor=#dae8fc;strokeColor=#6c8ebf;" vertex="1" parent="1">
          <mxGeometry x="129" y="120" width="20" height="20" as="geometry" />
        </mxCell>
        <mxCell id="CTbkkkIAVjYK_eoV67LG-5" value="" style="endArrow=none;html=1;rounded=0;entryX=0.5;entryY=1;entryDx=0;entryDy=0;fillColor=#dae8fc;strokeColor=#6c8ebf;" edge="1" parent="1" target="CTbkkkIAVjYK_eoV67LG-4">
          <mxGeometry width="50" height="50" relative="1" as="geometry">
            <mxPoint x="139" y="160" as="sourcePoint" />
            <mxPoint x="359" y="180" as="targetPoint" />
          </mxGeometry>
        </mxCell>
        <mxCell id="CTbkkkIAVjYK_eoV67LG-6" value="" style="endArrow=none;html=1;rounded=0;entryX=0.5;entryY=1;entryDx=0;entryDy=0;fillColor=#dae8fc;strokeColor=#6c8ebf;" edge="1" parent="1">
          <mxGeometry width="50" height="50" relative="1" as="geometry">
            <mxPoint x="129" y="180" as="sourcePoint" />
            <mxPoint x="138.71000000000004" y="160" as="targetPoint" />
          </mxGeometry>
        </mxCell>
        <mxCell id="CTbkkkIAVjYK_eoV67LG-7" value="" style="endArrow=none;html=1;rounded=0;fillColor=#dae8fc;strokeColor=#6c8ebf;" edge="1" parent="1">
          <mxGeometry width="50" height="50" relative="1" as="geometry">
            <mxPoint x="149" y="180" as="sourcePoint" />
            <mxPoint x="139" y="160" as="targetPoint" />
          </mxGeometry>
        </mxCell>
        <mxCell id="CTbkkkIAVjYK_eoV67LG-8" value="" style="endArrow=none;dashed=1;html=1;rounded=0;fillColor=#fff2cc;strokeColor=#d6b656;startArrow=classic;startFill=1;entryX=1;entryY=0.5;entryDx=0;entryDy=0;" edge="1" parent="1" target="CTbkkkIAVjYK_eoV67LG-4">
          <mxGeometry width="50" height="50" relative="1" as="geometry">
            <mxPoint x="299" y="70" as="sourcePoint" />
            <mxPoint x="149" y="70" as="targetPoint" />
          </mxGeometry>
        </mxCell>
        <mxCell id="CTbkkkIAVjYK_eoV67LG-9" value="" style="endArrow=classic;html=1;rounded=0;fillColor=#fff2cc;strokeColor=#d6b656;dashed=1;entryX=0.5;entryY=1;entryDx=0;entryDy=0;" edge="1" parent="1" target="CTbkkkIAVjYK_eoV67LG-2">
          <mxGeometry width="50" height="50" relative="1" as="geometry">
            <mxPoint x="299" y="70" as="sourcePoint" />
            <mxPoint x="299" y="139.9999999999999" as="targetPoint" />
          </mxGeometry>
        </mxCell>
        <mxCell id="CTbkkkIAVjYK_eoV67LG-10" value="" style="endArrow=none;html=1;rounded=0;fillColor=#dae8fc;strokeColor=#6c8ebf;" edge="1" parent="1">
          <mxGeometry width="50" height="50" relative="1" as="geometry">
            <mxPoint x="49" y="210" as="sourcePoint" />
            <mxPoint x="79" y="180" as="targetPoint" />
          </mxGeometry>
        </mxCell>
        <mxCell id="CTbkkkIAVjYK_eoV67LG-11" value="" style="endArrow=none;html=1;rounded=0;fillColor=#dae8fc;strokeColor=#6c8ebf;" edge="1" parent="1">
          <mxGeometry width="50" height="50" relative="1" as="geometry">
            <mxPoint x="89" y="210" as="sourcePoint" />
            <mxPoint x="119" y="180" as="targetPoint" />
          </mxGeometry>
        </mxCell>
        <mxCell id="CTbkkkIAVjYK_eoV67LG-12" value="" style="endArrow=none;html=1;rounded=0;fillColor=#dae8fc;strokeColor=#6c8ebf;" edge="1" parent="1">
          <mxGeometry width="50" height="50" relative="1" as="geometry">
            <mxPoint x="129" y="210" as="sourcePoint" />
            <mxPoint x="159" y="180" as="targetPoint" />
          </mxGeometry>
        </mxCell>
        <mxCell id="CTbkkkIAVjYK_eoV67LG-13" value="" style="endArrow=none;html=1;rounded=0;fillColor=#dae8fc;strokeColor=#6c8ebf;" edge="1" parent="1">
          <mxGeometry width="50" height="50" relative="1" as="geometry">
            <mxPoint x="169" y="210" as="sourcePoint" />
            <mxPoint x="199" y="180" as="targetPoint" />
          </mxGeometry>
        </mxCell>
        <mxCell id="CTbkkkIAVjYK_eoV67LG-14" value="" style="endArrow=none;html=1;rounded=0;fillColor=#dae8fc;strokeColor=#6c8ebf;" edge="1" parent="1">
          <mxGeometry width="50" height="50" relative="1" as="geometry">
            <mxPoint x="209" y="210" as="sourcePoint" />
            <mxPoint x="239" y="180" as="targetPoint" />
          </mxGeometry>
        </mxCell>
        <mxCell id="CTbkkkIAVjYK_eoV67LG-15" value="" style="endArrow=none;html=1;rounded=0;fillColor=#dae8fc;strokeColor=#6c8ebf;" edge="1" parent="1">
          <mxGeometry width="50" height="50" relative="1" as="geometry">
            <mxPoint x="249" y="210" as="sourcePoint" />
            <mxPoint x="279" y="180" as="targetPoint" />
          </mxGeometry>
        </mxCell>
        <mxCell id="CTbkkkIAVjYK_eoV67LG-16" value="" style="endArrow=none;html=1;rounded=0;fillColor=#dae8fc;strokeColor=#6c8ebf;" edge="1" parent="1">
          <mxGeometry width="50" height="50" relative="1" as="geometry">
            <mxPoint x="259" y="180" as="sourcePoint" />
            <mxPoint x="359" y="180" as="targetPoint" />
          </mxGeometry>
        </mxCell>
        <mxCell id="CTbkkkIAVjYK_eoV67LG-17" value="" style="endArrow=none;html=1;rounded=0;strokeColor=#006EAF;fontColor=#006EAF;" edge="1" parent="1">
          <mxGeometry width="50" height="50" relative="1" as="geometry">
            <mxPoint x="239" y="180" as="sourcePoint" />
            <mxPoint x="239" y="100" as="targetPoint" />
          </mxGeometry>
        </mxCell>
        <mxCell id="CTbkkkIAVjYK_eoV67LG-18" value="" style="endArrow=none;html=1;rounded=0;strokeColor=#006EAF;fontColor=#006EAF;" edge="1" parent="1">
          <mxGeometry width="50" height="50" relative="1" as="geometry">
            <mxPoint x="259" y="180" as="sourcePoint" />
            <mxPoint x="259" y="100" as="targetPoint" />
          </mxGeometry>
        </mxCell>
        <mxCell id="CTbkkkIAVjYK_eoV67LG-19" value="" style="endArrow=none;html=1;rounded=0;strokeColor=#006EAF;fontColor=#006EAF;" edge="1" parent="1">
          <mxGeometry width="50" height="50" relative="1" as="geometry">
            <mxPoint x="239" y="100" as="sourcePoint" />
            <mxPoint x="259" y="100" as="targetPoint" />
          </mxGeometry>
        </mxCell>
        <mxCell id="CTbkkkIAVjYK_eoV67LG-20" value="" style="endArrow=none;html=1;rounded=0;fillColor=#dae8fc;strokeColor=#6c8ebf;" edge="1" parent="1">
          <mxGeometry width="50" height="50" relative="1" as="geometry">
            <mxPoint x="289" y="210" as="sourcePoint" />
            <mxPoint x="319" y="180" as="targetPoint" />
          </mxGeometry>
        </mxCell>
        <mxCell id="CTbkkkIAVjYK_eoV67LG-23" value="" style="endArrow=none;html=1;rounded=0;fillColor=#dae8fc;strokeColor=#6c8ebf;" edge="1" parent="1">
          <mxGeometry width="50" height="50" relative="1" as="geometry">
            <mxPoint x="468" y="180" as="sourcePoint" />
            <mxPoint x="658" y="180" as="targetPoint" />
          </mxGeometry>
        </mxCell>
        <mxCell id="CTbkkkIAVjYK_eoV67LG-24" value="" style="ellipse;whiteSpace=wrap;html=1;aspect=fixed;fillColor=#dae8fc;strokeColor=#6c8ebf;" vertex="1" parent="1">
          <mxGeometry x="548" y="120" width="20" height="20" as="geometry" />
        </mxCell>
        <mxCell id="CTbkkkIAVjYK_eoV67LG-25" value="" style="endArrow=none;html=1;rounded=0;entryX=0.5;entryY=1;entryDx=0;entryDy=0;fillColor=#dae8fc;strokeColor=#6c8ebf;" edge="1" parent="1" target="CTbkkkIAVjYK_eoV67LG-24">
          <mxGeometry width="50" height="50" relative="1" as="geometry">
            <mxPoint x="558" y="160" as="sourcePoint" />
            <mxPoint x="778" y="180" as="targetPoint" />
          </mxGeometry>
        </mxCell>
        <mxCell id="CTbkkkIAVjYK_eoV67LG-26" value="" style="endArrow=none;html=1;rounded=0;entryX=0.5;entryY=1;entryDx=0;entryDy=0;fillColor=#dae8fc;strokeColor=#6c8ebf;" edge="1" parent="1">
          <mxGeometry width="50" height="50" relative="1" as="geometry">
            <mxPoint x="548" y="180" as="sourcePoint" />
            <mxPoint x="557.71" y="160" as="targetPoint" />
          </mxGeometry>
        </mxCell>
        <mxCell id="CTbkkkIAVjYK_eoV67LG-27" value="" style="endArrow=none;html=1;rounded=0;fillColor=#dae8fc;strokeColor=#6c8ebf;" edge="1" parent="1">
          <mxGeometry width="50" height="50" relative="1" as="geometry">
            <mxPoint x="568" y="180" as="sourcePoint" />
            <mxPoint x="558" y="160" as="targetPoint" />
          </mxGeometry>
        </mxCell>
        <mxCell id="CTbkkkIAVjYK_eoV67LG-28" value="" style="endArrow=none;dashed=1;html=1;rounded=0;fillColor=#fff2cc;strokeColor=#d6b656;startArrow=classic;startFill=1;entryX=1;entryY=0.5;entryDx=0;entryDy=0;" edge="1" parent="1" target="CTbkkkIAVjYK_eoV67LG-24">
          <mxGeometry width="50" height="50" relative="1" as="geometry">
            <mxPoint x="718" y="90" as="sourcePoint" />
            <mxPoint x="568" y="70" as="targetPoint" />
          </mxGeometry>
        </mxCell>
        <mxCell id="CTbkkkIAVjYK_eoV67LG-30" value="" style="endArrow=none;html=1;rounded=0;fillColor=#dae8fc;strokeColor=#6c8ebf;" edge="1" parent="1">
          <mxGeometry width="50" height="50" relative="1" as="geometry">
            <mxPoint x="468" y="210" as="sourcePoint" />
            <mxPoint x="498" y="180" as="targetPoint" />
          </mxGeometry>
        </mxCell>
        <mxCell id="CTbkkkIAVjYK_eoV67LG-31" value="" style="endArrow=none;html=1;rounded=0;fillColor=#dae8fc;strokeColor=#6c8ebf;" edge="1" parent="1">
          <mxGeometry width="50" height="50" relative="1" as="geometry">
            <mxPoint x="508" y="210" as="sourcePoint" />
            <mxPoint x="538" y="180" as="targetPoint" />
          </mxGeometry>
        </mxCell>
        <mxCell id="CTbkkkIAVjYK_eoV67LG-32" value="" style="endArrow=none;html=1;rounded=0;fillColor=#dae8fc;strokeColor=#6c8ebf;" edge="1" parent="1">
          <mxGeometry width="50" height="50" relative="1" as="geometry">
            <mxPoint x="548" y="210" as="sourcePoint" />
            <mxPoint x="578" y="180" as="targetPoint" />
          </mxGeometry>
        </mxCell>
        <mxCell id="CTbkkkIAVjYK_eoV67LG-33" value="" style="endArrow=none;html=1;rounded=0;fillColor=#dae8fc;strokeColor=#6c8ebf;" edge="1" parent="1">
          <mxGeometry width="50" height="50" relative="1" as="geometry">
            <mxPoint x="588" y="210" as="sourcePoint" />
            <mxPoint x="618" y="180" as="targetPoint" />
          </mxGeometry>
        </mxCell>
        <mxCell id="CTbkkkIAVjYK_eoV67LG-34" value="" style="endArrow=none;html=1;rounded=0;fillColor=#dae8fc;strokeColor=#6c8ebf;" edge="1" parent="1">
          <mxGeometry width="50" height="50" relative="1" as="geometry">
            <mxPoint x="628" y="210" as="sourcePoint" />
            <mxPoint x="658" y="180" as="targetPoint" />
          </mxGeometry>
        </mxCell>
        <mxCell id="CTbkkkIAVjYK_eoV67LG-35" value="" style="endArrow=none;html=1;rounded=0;fillColor=#dae8fc;strokeColor=#6c8ebf;" edge="1" parent="1">
          <mxGeometry width="50" height="50" relative="1" as="geometry">
            <mxPoint x="668" y="210" as="sourcePoint" />
            <mxPoint x="698" y="180" as="targetPoint" />
          </mxGeometry>
        </mxCell>
        <mxCell id="CTbkkkIAVjYK_eoV67LG-36" value="" style="endArrow=none;html=1;rounded=0;fillColor=#dae8fc;strokeColor=#6c8ebf;" edge="1" parent="1">
          <mxGeometry width="50" height="50" relative="1" as="geometry">
            <mxPoint x="678" y="180" as="sourcePoint" />
            <mxPoint x="778" y="180" as="targetPoint" />
          </mxGeometry>
        </mxCell>
        <mxCell id="CTbkkkIAVjYK_eoV67LG-37" value="" style="endArrow=none;html=1;rounded=0;strokeColor=#006EAF;fontColor=#006EAF;" edge="1" parent="1">
          <mxGeometry width="50" height="50" relative="1" as="geometry">
            <mxPoint x="658" y="180" as="sourcePoint" />
            <mxPoint x="658" y="100" as="targetPoint" />
          </mxGeometry>
        </mxCell>
        <mxCell id="CTbkkkIAVjYK_eoV67LG-38" value="" style="endArrow=none;html=1;rounded=0;strokeColor=#006EAF;fontColor=#006EAF;" edge="1" parent="1">
          <mxGeometry width="50" height="50" relative="1" as="geometry">
            <mxPoint x="678" y="180" as="sourcePoint" />
            <mxPoint x="678" y="100" as="targetPoint" />
          </mxGeometry>
        </mxCell>
        <mxCell id="CTbkkkIAVjYK_eoV67LG-39" value="" style="endArrow=none;html=1;rounded=0;strokeColor=#006EAF;fontColor=#006EAF;" edge="1" parent="1">
          <mxGeometry width="50" height="50" relative="1" as="geometry">
            <mxPoint x="658" y="100" as="sourcePoint" />
            <mxPoint x="678" y="100" as="targetPoint" />
          </mxGeometry>
        </mxCell>
        <mxCell id="CTbkkkIAVjYK_eoV67LG-40" value="" style="endArrow=none;html=1;rounded=0;fillColor=#dae8fc;strokeColor=#6c8ebf;" edge="1" parent="1">
          <mxGeometry width="50" height="50" relative="1" as="geometry">
            <mxPoint x="708" y="210" as="sourcePoint" />
            <mxPoint x="738" y="180" as="targetPoint" />
          </mxGeometry>
        </mxCell>
        <mxCell id="CTbkkkIAVjYK_eoV67LG-44" value="" style="endArrow=classic;html=1;rounded=0;dashed=1;strokeColor=#d6b656;fontColor=#006EAF;fillColor=#fff2cc;exitX=0.552;exitY=0.641;exitDx=0;exitDy=0;exitPerimeter=0;" edge="1" parent="1" source="CTbkkkIAVjYK_eoV67LG-45">
          <mxGeometry width="50" height="50" relative="1" as="geometry">
            <mxPoint x="658" y="160" as="sourcePoint" />
            <mxPoint x="658" y="180" as="targetPoint" />
          </mxGeometry>
        </mxCell>
        <mxCell id="CTbkkkIAVjYK_eoV67LG-45" value="" style="shape=waypoint;sketch=0;fillStyle=solid;size=6;pointerEvents=1;points=[];fillColor=none;resizable=0;rotatable=0;perimeter=centerPerimeter;snapToPoint=1;strokeColor=#EA6B66;fontColor=#006EAF;" vertex="1" parent="1">
          <mxGeometry x="648" y="96" width="20" height="20" as="geometry" />
        </mxCell>
        <mxCell id="CTbkkkIAVjYK_eoV67LG-46" value="" style="endArrow=classic;html=1;rounded=0;strokeColor=#d6b656;fontColor=#006EAF;fillColor=#fff2cc;dashed=1;" edge="1" parent="1">
          <mxGeometry width="50" height="50" relative="1" as="geometry">
            <mxPoint x="657" y="164.8599999999999" as="sourcePoint" />
            <mxPoint x="637" y="164.8599999999999" as="targetPoint" />
          </mxGeometry>
        </mxCell>
        <mxCell id="CTbkkkIAVjYK_eoV67LG-47" value="&lt;span style=&quot;font-size: 30px;&quot;&gt;将生成物放在墙上比较困难&lt;/span&gt;" style="text;html=1;strokeColor=none;fillColor=none;align=center;verticalAlign=middle;whiteSpace=wrap;rounded=0;fontColor=#006EAF;" vertex="1" parent="1">
          <mxGeometry x="840" y="140" width="440" height="5" as="geometry" />
        </mxCell>
        <UserObject label="" treeRoot="1" id="CTbkkkIAVjYK_eoV67LG-49">
          <mxCell style="whiteSpace=wrap;html=1;align=center;treeFolding=1;treeMoving=1;newEdgeStyle={&quot;edgeStyle&quot;:&quot;elbowEdgeStyle&quot;,&quot;startArrow&quot;:&quot;none&quot;,&quot;endArrow&quot;:&quot;none&quot;};fillColor=#FFFFFF;strokeColor=#d6b656;" vertex="1" parent="1">
            <mxGeometry x="660" y="260" width="40" height="30" as="geometry" />
          </mxCell>
        </UserObject>
        <mxCell id="CTbkkkIAVjYK_eoV67LG-50" value="" style="endArrow=none;html=1;rounded=0;fillColor=#dae8fc;strokeColor=#6c8ebf;" edge="1" parent="1">
          <mxGeometry width="50" height="50" relative="1" as="geometry">
            <mxPoint x="470" y="370" as="sourcePoint" />
            <mxPoint x="660" y="370" as="targetPoint" />
          </mxGeometry>
        </mxCell>
        <mxCell id="CTbkkkIAVjYK_eoV67LG-51" value="" style="ellipse;whiteSpace=wrap;html=1;aspect=fixed;fillColor=#dae8fc;strokeColor=#6c8ebf;" vertex="1" parent="1">
          <mxGeometry x="550" y="310" width="20" height="20" as="geometry" />
        </mxCell>
        <mxCell id="CTbkkkIAVjYK_eoV67LG-52" value="" style="endArrow=none;html=1;rounded=0;entryX=0.5;entryY=1;entryDx=0;entryDy=0;fillColor=#dae8fc;strokeColor=#6c8ebf;" edge="1" parent="1" target="CTbkkkIAVjYK_eoV67LG-51">
          <mxGeometry width="50" height="50" relative="1" as="geometry">
            <mxPoint x="560" y="350" as="sourcePoint" />
            <mxPoint x="780" y="370" as="targetPoint" />
          </mxGeometry>
        </mxCell>
        <mxCell id="CTbkkkIAVjYK_eoV67LG-53" value="" style="endArrow=none;html=1;rounded=0;entryX=0.5;entryY=1;entryDx=0;entryDy=0;fillColor=#dae8fc;strokeColor=#6c8ebf;" edge="1" parent="1">
          <mxGeometry width="50" height="50" relative="1" as="geometry">
            <mxPoint x="550" y="370" as="sourcePoint" />
            <mxPoint x="559.71" y="350" as="targetPoint" />
          </mxGeometry>
        </mxCell>
        <mxCell id="CTbkkkIAVjYK_eoV67LG-54" value="" style="endArrow=none;html=1;rounded=0;fillColor=#dae8fc;strokeColor=#6c8ebf;" edge="1" parent="1">
          <mxGeometry width="50" height="50" relative="1" as="geometry">
            <mxPoint x="570" y="370" as="sourcePoint" />
            <mxPoint x="560" y="350" as="targetPoint" />
          </mxGeometry>
        </mxCell>
        <mxCell id="CTbkkkIAVjYK_eoV67LG-55" value="" style="endArrow=none;dashed=1;html=1;rounded=0;fillColor=#fff2cc;strokeColor=#d6b656;startArrow=classic;startFill=1;entryX=1;entryY=0.5;entryDx=0;entryDy=0;" edge="1" parent="1" target="CTbkkkIAVjYK_eoV67LG-51">
          <mxGeometry width="50" height="50" relative="1" as="geometry">
            <mxPoint x="720" y="280" as="sourcePoint" />
            <mxPoint x="570" y="260" as="targetPoint" />
          </mxGeometry>
        </mxCell>
        <mxCell id="CTbkkkIAVjYK_eoV67LG-56" value="" style="endArrow=none;html=1;rounded=0;fillColor=#dae8fc;strokeColor=#6c8ebf;" edge="1" parent="1">
          <mxGeometry width="50" height="50" relative="1" as="geometry">
            <mxPoint x="470" y="400" as="sourcePoint" />
            <mxPoint x="500" y="370" as="targetPoint" />
          </mxGeometry>
        </mxCell>
        <mxCell id="CTbkkkIAVjYK_eoV67LG-57" value="" style="endArrow=none;html=1;rounded=0;fillColor=#dae8fc;strokeColor=#6c8ebf;" edge="1" parent="1">
          <mxGeometry width="50" height="50" relative="1" as="geometry">
            <mxPoint x="510" y="400" as="sourcePoint" />
            <mxPoint x="540" y="370" as="targetPoint" />
          </mxGeometry>
        </mxCell>
        <mxCell id="CTbkkkIAVjYK_eoV67LG-58" value="" style="endArrow=none;html=1;rounded=0;fillColor=#dae8fc;strokeColor=#6c8ebf;" edge="1" parent="1">
          <mxGeometry width="50" height="50" relative="1" as="geometry">
            <mxPoint x="550" y="400" as="sourcePoint" />
            <mxPoint x="580" y="370" as="targetPoint" />
          </mxGeometry>
        </mxCell>
        <mxCell id="CTbkkkIAVjYK_eoV67LG-59" value="" style="endArrow=none;html=1;rounded=0;fillColor=#dae8fc;strokeColor=#6c8ebf;" edge="1" parent="1">
          <mxGeometry width="50" height="50" relative="1" as="geometry">
            <mxPoint x="590" y="400" as="sourcePoint" />
            <mxPoint x="620" y="370" as="targetPoint" />
          </mxGeometry>
        </mxCell>
        <mxCell id="CTbkkkIAVjYK_eoV67LG-60" value="" style="endArrow=none;html=1;rounded=0;fillColor=#dae8fc;strokeColor=#6c8ebf;" edge="1" parent="1">
          <mxGeometry width="50" height="50" relative="1" as="geometry">
            <mxPoint x="630" y="400" as="sourcePoint" />
            <mxPoint x="660" y="370" as="targetPoint" />
          </mxGeometry>
        </mxCell>
        <mxCell id="CTbkkkIAVjYK_eoV67LG-61" value="" style="endArrow=none;html=1;rounded=0;fillColor=#dae8fc;strokeColor=#6c8ebf;" edge="1" parent="1">
          <mxGeometry width="50" height="50" relative="1" as="geometry">
            <mxPoint x="670" y="400" as="sourcePoint" />
            <mxPoint x="700" y="370" as="targetPoint" />
          </mxGeometry>
        </mxCell>
        <mxCell id="CTbkkkIAVjYK_eoV67LG-62" value="" style="endArrow=none;html=1;rounded=0;fillColor=#dae8fc;strokeColor=#6c8ebf;" edge="1" parent="1">
          <mxGeometry width="50" height="50" relative="1" as="geometry">
            <mxPoint x="690" y="370" as="sourcePoint" />
            <mxPoint x="790" y="370" as="targetPoint" />
          </mxGeometry>
        </mxCell>
        <mxCell id="CTbkkkIAVjYK_eoV67LG-63" value="" style="endArrow=none;html=1;rounded=0;strokeColor=#006EAF;fontColor=#006EAF;" edge="1" parent="1">
          <mxGeometry width="50" height="50" relative="1" as="geometry">
            <mxPoint x="660" y="370" as="sourcePoint" />
            <mxPoint x="660" y="290" as="targetPoint" />
          </mxGeometry>
        </mxCell>
        <mxCell id="CTbkkkIAVjYK_eoV67LG-64" value="" style="endArrow=none;html=1;rounded=0;strokeColor=#006EAF;fontColor=#006EAF;" edge="1" parent="1">
          <mxGeometry width="50" height="50" relative="1" as="geometry">
            <mxPoint x="690" y="370" as="sourcePoint" />
            <mxPoint x="690" y="290" as="targetPoint" />
          </mxGeometry>
        </mxCell>
        <mxCell id="CTbkkkIAVjYK_eoV67LG-65" value="" style="endArrow=none;html=1;rounded=0;strokeColor=#006EAF;fontColor=#006EAF;" edge="1" parent="1">
          <mxGeometry width="50" height="50" relative="1" as="geometry">
            <mxPoint x="660" y="290" as="sourcePoint" />
            <mxPoint x="680" y="290" as="targetPoint" />
          </mxGeometry>
        </mxCell>
        <mxCell id="CTbkkkIAVjYK_eoV67LG-66" value="" style="endArrow=none;html=1;rounded=0;fillColor=#dae8fc;strokeColor=#6c8ebf;" edge="1" parent="1">
          <mxGeometry width="50" height="50" relative="1" as="geometry">
            <mxPoint x="710" y="400" as="sourcePoint" />
            <mxPoint x="740" y="370" as="targetPoint" />
          </mxGeometry>
        </mxCell>
        <mxCell id="CTbkkkIAVjYK_eoV67LG-67" value="" style="endArrow=classic;html=1;rounded=0;dashed=1;strokeColor=#d6b656;fontColor=#006EAF;fillColor=#fff2cc;exitX=0.552;exitY=0.641;exitDx=0;exitDy=0;exitPerimeter=0;" edge="1" parent="1" source="CTbkkkIAVjYK_eoV67LG-68">
          <mxGeometry width="50" height="50" relative="1" as="geometry">
            <mxPoint x="660" y="350" as="sourcePoint" />
            <mxPoint x="660" y="370" as="targetPoint" />
          </mxGeometry>
        </mxCell>
        <mxCell id="CTbkkkIAVjYK_eoV67LG-68" value="" style="shape=waypoint;sketch=0;fillStyle=solid;size=6;pointerEvents=1;points=[];fillColor=none;resizable=0;rotatable=0;perimeter=centerPerimeter;snapToPoint=1;strokeColor=#EA6B66;fontColor=#006EAF;" vertex="1" parent="1">
          <mxGeometry x="650" y="286" width="20" height="20" as="geometry" />
        </mxCell>
        <mxCell id="CTbkkkIAVjYK_eoV67LG-71" value="" style="endArrow=classic;html=1;rounded=0;fillColor=#ffe6cc;strokeColor=#d79b00;dashed=1;" edge="1" parent="1">
          <mxGeometry width="50" height="50" relative="1" as="geometry">
            <mxPoint x="659" y="295.9" as="sourcePoint" />
            <mxPoint x="679" y="295.9" as="targetPoint" />
          </mxGeometry>
        </mxCell>
        <mxCell id="CTbkkkIAVjYK_eoV67LG-73" value="" style="endArrow=classic;html=1;rounded=0;dashed=1;strokeColor=#d6b656;fontColor=#006EAF;fillColor=#fff2cc;exitDx=0;exitDy=0;exitPerimeter=0;startArrow=none;" edge="1" parent="1" source="CTbkkkIAVjYK_eoV67LG-74">
          <mxGeometry width="50" height="50" relative="1" as="geometry">
            <mxPoint x="680" y="216" as="sourcePoint" />
            <mxPoint x="680" y="300" as="targetPoint" />
          </mxGeometry>
        </mxCell>
        <mxCell id="CTbkkkIAVjYK_eoV67LG-75" value="" style="endArrow=none;html=1;rounded=0;dashed=1;strokeColor=#d6b656;fontColor=#006EAF;fillColor=#fff2cc;exitX=0.552;exitY=0.641;exitDx=0;exitDy=0;exitPerimeter=0;" edge="1" parent="1" target="CTbkkkIAVjYK_eoV67LG-74">
          <mxGeometry width="50" height="50" relative="1" as="geometry">
            <mxPoint x="680" y="216" as="sourcePoint" />
            <mxPoint x="680" y="300" as="targetPoint" />
          </mxGeometry>
        </mxCell>
        <mxCell id="CTbkkkIAVjYK_eoV67LG-74" value="" style="shape=waypoint;sketch=0;fillStyle=solid;size=6;pointerEvents=1;points=[];fillColor=none;resizable=0;rotatable=0;perimeter=centerPerimeter;snapToPoint=1;fontSize=8;strokeColor=#EA6B66;" vertex="1" parent="1">
          <mxGeometry x="670" y="280" width="20" height="20" as="geometry" />
        </mxCell>
        <mxCell id="CTbkkkIAVjYK_eoV67LG-76" value="TraceHeight" style="text;html=1;strokeColor=none;fillColor=none;align=center;verticalAlign=middle;whiteSpace=wrap;rounded=0;fontSize=8;fontColor=#006EAF;" vertex="1" parent="1">
          <mxGeometry x="710" y="240" width="30" height="20" as="geometry" />
        </mxCell>
        <mxCell id="CTbkkkIAVjYK_eoV67LG-78" value="" style="endArrow=none;html=1;rounded=0;fillColor=#dae8fc;strokeColor=#6c8ebf;" edge="1" parent="1">
          <mxGeometry width="50" height="50" relative="1" as="geometry">
            <mxPoint x="39.99999999999977" y="370" as="sourcePoint" />
            <mxPoint x="180" y="370" as="targetPoint" />
          </mxGeometry>
        </mxCell>
        <mxCell id="CTbkkkIAVjYK_eoV67LG-79" value="" style="ellipse;whiteSpace=wrap;html=1;aspect=fixed;fillColor=#dae8fc;strokeColor=#6c8ebf;" vertex="1" parent="1">
          <mxGeometry x="120" y="310" width="20" height="20" as="geometry" />
        </mxCell>
        <mxCell id="CTbkkkIAVjYK_eoV67LG-80" value="" style="endArrow=none;html=1;rounded=0;entryX=0.5;entryY=1;entryDx=0;entryDy=0;fillColor=#dae8fc;strokeColor=#6c8ebf;" edge="1" parent="1" target="CTbkkkIAVjYK_eoV67LG-79">
          <mxGeometry width="50" height="50" relative="1" as="geometry">
            <mxPoint x="129.99999999999977" y="350" as="sourcePoint" />
            <mxPoint x="350" y="370" as="targetPoint" />
          </mxGeometry>
        </mxCell>
        <mxCell id="CTbkkkIAVjYK_eoV67LG-81" value="" style="endArrow=none;html=1;rounded=0;entryX=0.5;entryY=1;entryDx=0;entryDy=0;fillColor=#dae8fc;strokeColor=#6c8ebf;" edge="1" parent="1">
          <mxGeometry width="50" height="50" relative="1" as="geometry">
            <mxPoint x="119.99999999999977" y="370" as="sourcePoint" />
            <mxPoint x="129.71000000000004" y="350" as="targetPoint" />
          </mxGeometry>
        </mxCell>
        <mxCell id="CTbkkkIAVjYK_eoV67LG-82" value="" style="endArrow=none;html=1;rounded=0;fillColor=#dae8fc;strokeColor=#6c8ebf;" edge="1" parent="1">
          <mxGeometry width="50" height="50" relative="1" as="geometry">
            <mxPoint x="139.99999999999977" y="370" as="sourcePoint" />
            <mxPoint x="129.99999999999977" y="350" as="targetPoint" />
          </mxGeometry>
        </mxCell>
        <mxCell id="CTbkkkIAVjYK_eoV67LG-83" value="" style="endArrow=none;dashed=1;html=1;rounded=0;fillColor=#fff2cc;strokeColor=#d6b656;startArrow=classic;startFill=1;entryX=1;entryY=0.5;entryDx=0;entryDy=0;" edge="1" parent="1" target="CTbkkkIAVjYK_eoV67LG-79">
          <mxGeometry width="50" height="50" relative="1" as="geometry">
            <mxPoint x="289.9999999999998" y="280" as="sourcePoint" />
            <mxPoint x="140" y="260" as="targetPoint" />
          </mxGeometry>
        </mxCell>
        <mxCell id="CTbkkkIAVjYK_eoV67LG-84" value="" style="endArrow=none;html=1;rounded=0;fillColor=#dae8fc;strokeColor=#6c8ebf;" edge="1" parent="1">
          <mxGeometry width="50" height="50" relative="1" as="geometry">
            <mxPoint x="39.99999999999977" y="400" as="sourcePoint" />
            <mxPoint x="69.99999999999977" y="370" as="targetPoint" />
          </mxGeometry>
        </mxCell>
        <mxCell id="CTbkkkIAVjYK_eoV67LG-85" value="" style="endArrow=none;html=1;rounded=0;fillColor=#dae8fc;strokeColor=#6c8ebf;" edge="1" parent="1">
          <mxGeometry width="50" height="50" relative="1" as="geometry">
            <mxPoint x="79.99999999999977" y="400" as="sourcePoint" />
            <mxPoint x="109.99999999999977" y="370" as="targetPoint" />
          </mxGeometry>
        </mxCell>
        <mxCell id="CTbkkkIAVjYK_eoV67LG-86" value="" style="endArrow=none;html=1;rounded=0;fillColor=#dae8fc;strokeColor=#6c8ebf;" edge="1" parent="1">
          <mxGeometry width="50" height="50" relative="1" as="geometry">
            <mxPoint x="119.99999999999977" y="400" as="sourcePoint" />
            <mxPoint x="149.99999999999977" y="370" as="targetPoint" />
          </mxGeometry>
        </mxCell>
        <mxCell id="CTbkkkIAVjYK_eoV67LG-87" value="" style="endArrow=none;html=1;rounded=0;fillColor=#dae8fc;strokeColor=#6c8ebf;" edge="1" parent="1">
          <mxGeometry width="50" height="50" relative="1" as="geometry">
            <mxPoint x="159.99999999999977" y="400" as="sourcePoint" />
            <mxPoint x="200" y="360" as="targetPoint" />
          </mxGeometry>
        </mxCell>
        <mxCell id="CTbkkkIAVjYK_eoV67LG-88" value="" style="endArrow=none;html=1;rounded=0;fillColor=#dae8fc;strokeColor=#6c8ebf;" edge="1" parent="1">
          <mxGeometry width="50" height="50" relative="1" as="geometry">
            <mxPoint x="199.99999999999977" y="400" as="sourcePoint" />
            <mxPoint x="229.99999999999977" y="370" as="targetPoint" />
          </mxGeometry>
        </mxCell>
        <mxCell id="CTbkkkIAVjYK_eoV67LG-89" value="" style="endArrow=none;html=1;rounded=0;fillColor=#dae8fc;strokeColor=#6c8ebf;" edge="1" parent="1">
          <mxGeometry width="50" height="50" relative="1" as="geometry">
            <mxPoint x="239.99999999999977" y="400" as="sourcePoint" />
            <mxPoint x="269.9999999999998" y="370" as="targetPoint" />
          </mxGeometry>
        </mxCell>
        <mxCell id="CTbkkkIAVjYK_eoV67LG-90" value="" style="endArrow=none;html=1;rounded=0;fillColor=#dae8fc;strokeColor=#6c8ebf;" edge="1" parent="1">
          <mxGeometry width="50" height="50" relative="1" as="geometry">
            <mxPoint x="249.99999999999977" y="370" as="sourcePoint" />
            <mxPoint x="349.9999999999998" y="370" as="targetPoint" />
          </mxGeometry>
        </mxCell>
        <mxCell id="CTbkkkIAVjYK_eoV67LG-91" value="" style="endArrow=none;html=1;rounded=0;strokeColor=#006EAF;fontColor=#006EAF;" edge="1" parent="1">
          <mxGeometry width="50" height="50" relative="1" as="geometry">
            <mxPoint x="229.99999999999977" y="370" as="sourcePoint" />
            <mxPoint x="229.99999999999977" y="290" as="targetPoint" />
          </mxGeometry>
        </mxCell>
        <mxCell id="CTbkkkIAVjYK_eoV67LG-92" value="" style="endArrow=none;html=1;rounded=0;strokeColor=#006EAF;fontColor=#006EAF;" edge="1" parent="1">
          <mxGeometry width="50" height="50" relative="1" as="geometry">
            <mxPoint x="249.99999999999977" y="370" as="sourcePoint" />
            <mxPoint x="249.99999999999977" y="290" as="targetPoint" />
          </mxGeometry>
        </mxCell>
        <mxCell id="CTbkkkIAVjYK_eoV67LG-93" value="" style="endArrow=none;html=1;rounded=0;strokeColor=#006EAF;fontColor=#006EAF;" edge="1" parent="1">
          <mxGeometry width="50" height="50" relative="1" as="geometry">
            <mxPoint x="229.99999999999977" y="290" as="sourcePoint" />
            <mxPoint x="249.99999999999977" y="290" as="targetPoint" />
          </mxGeometry>
        </mxCell>
        <mxCell id="CTbkkkIAVjYK_eoV67LG-94" value="" style="endArrow=none;html=1;rounded=0;fillColor=#dae8fc;strokeColor=#6c8ebf;" edge="1" parent="1">
          <mxGeometry width="50" height="50" relative="1" as="geometry">
            <mxPoint x="279.9999999999998" y="400" as="sourcePoint" />
            <mxPoint x="309.9999999999998" y="370" as="targetPoint" />
          </mxGeometry>
        </mxCell>
        <mxCell id="CTbkkkIAVjYK_eoV67LG-96" value="" style="shape=waypoint;sketch=0;fillStyle=solid;size=6;pointerEvents=1;points=[];fillColor=none;resizable=0;rotatable=0;perimeter=centerPerimeter;snapToPoint=1;strokeColor=#EA6B66;fontColor=#006EAF;" vertex="1" parent="1">
          <mxGeometry x="220" y="286" width="20" height="20" as="geometry" />
        </mxCell>
        <mxCell id="CTbkkkIAVjYK_eoV67LG-98" value="" style="endArrow=none;html=1;rounded=0;strokeColor=#006EAF;fontColor=#006EAF;" edge="1" parent="1">
          <mxGeometry width="50" height="50" relative="1" as="geometry">
            <mxPoint x="180" y="370" as="sourcePoint" />
            <mxPoint x="180" y="320" as="targetPoint" />
          </mxGeometry>
        </mxCell>
        <mxCell id="CTbkkkIAVjYK_eoV67LG-99" value="" style="endArrow=none;html=1;rounded=0;strokeColor=#006EAF;fontColor=#006EAF;" edge="1" parent="1">
          <mxGeometry width="50" height="50" relative="1" as="geometry">
            <mxPoint x="200" y="370" as="sourcePoint" />
            <mxPoint x="200" y="320" as="targetPoint" />
          </mxGeometry>
        </mxCell>
        <mxCell id="CTbkkkIAVjYK_eoV67LG-100" value="" style="endArrow=none;html=1;rounded=0;strokeColor=#006EAF;fontColor=#006EAF;" edge="1" parent="1">
          <mxGeometry width="50" height="50" relative="1" as="geometry">
            <mxPoint x="180" y="320.31" as="sourcePoint" />
            <mxPoint x="200" y="320.31" as="targetPoint" />
          </mxGeometry>
        </mxCell>
        <mxCell id="CTbkkkIAVjYK_eoV67LG-101" value="" style="endArrow=none;html=1;rounded=0;strokeColor=#006EAF;fontColor=#006EAF;" edge="1" parent="1">
          <mxGeometry width="50" height="50" relative="1" as="geometry">
            <mxPoint x="200" y="370" as="sourcePoint" />
            <mxPoint x="230" y="370" as="targetPoint" />
          </mxGeometry>
        </mxCell>
        <mxCell id="CTbkkkIAVjYK_eoV67LG-102" value="&lt;div style=&quot;text-align: center;&quot;&gt;&lt;span style=&quot;font-size: 30px;&quot;&gt;考虑单方向吸附&lt;/span&gt;&lt;/div&gt;" style="text;whiteSpace=wrap;html=1;fontSize=8;fontColor=#006EAF;" vertex="1" parent="1">
          <mxGeometry x="880" y="300" width="390" height="60" as="geometry" />
        </mxCell>
        <mxCell id="CTbkkkIAVjYK_eoV67LG-103" value="检测范围内可能存在多堵墙" style="text;strokeColor=none;fillColor=none;html=1;fontSize=8;fontStyle=1;verticalAlign=middle;align=center;fontColor=#006EAF;" vertex="1" parent="1">
          <mxGeometry x="140" y="410" width="100" height="40" as="geometry" />
        </mxCell>
      </root>
    </mxGraphModel>
  </diagram>
</mxfile>
